<svg data-icon-name="jam-2" data-style="line" icon_origin_id="19152" viewBox="0 0 24 24" xmlns="http://www.w3.org/2000/svg" id="jam-2" class="icon line" width="48" height="48"><path style="fill: none; stroke: rgb(0, 0, 0); stroke-linecap: round; stroke-linejoin: round; stroke-width: 1;" d="M18,3H6M17,5.59V3H7V5.59A3.41,3.41,0,0,1,6,8H6a3.41,3.41,0,0,0-1,2.41V20a1,1,0,0,0,1,1H18a1,1,0,0,0,1-1V10.41A3.41,3.41,0,0,0,18,8h0A3.41,3.41,0,0,1,17,5.59ZM14,13H10a1,1,0,0,0-1,1v2a1,1,0,0,0,1,1h4a1,1,0,0,0,1-1V14A1,1,0,0,0,14,13Z" id="primary"></path></svg>