<svg data-icon-name="grape-2" data-style="line" icon_origin_id="19142" viewBox="0 0 24 24" xmlns="http://www.w3.org/2000/svg" id="grape-2" class="icon line" width="48" height="48"><path style="fill: none; stroke: rgb(0, 0, 0); stroke-linecap: round; stroke-linejoin: round; stroke-width: 1;" d="M12,9a14.52,14.52,0,0,0-1-6" id="primary"></path><path style="fill: none; stroke: rgb(0, 0, 0); stroke-linecap: round; stroke-linejoin: round; stroke-width: 1;" d="M10,19a2,2,0,1,1,2,2A2,2,0,0,1,10,19Zm0-2a2,2,0,1,0-2-2A2,2,0,0,0,10,17Zm4,0a2,2,0,1,0-2-2A2,2,0,0,0,14,17Zm-2-4a2,2,0,1,0-2-2A2,2,0,0,0,12,13ZM8,13a2,2,0,1,0-2-2A2,2,0,0,0,8,13Zm8,0a2,2,0,1,0-2-2A2,2,0,0,0,16,13ZM12,8.9s2.77.52,4.1-.8.8-4,.8-4-2.57-.53-3.88.8S12,8.9,12,8.9Z" data-name="primary" id="primary-2"></path></svg>