<svg data-icon-name="atom" data-style="line" icon_origin_id="17715" viewBox="0 0 24 24" xmlns="http://www.w3.org/2000/svg" id="atom" class="icon line" width="48" height="48"><path style="fill: none; stroke: rgb(0, 0, 0); stroke-linecap: round; stroke-linejoin: round; stroke-width: 1;" d="M16,12c0,5-1.79,9-4,9s-4-4-4-9,1.79-9,4-9S16,7,16,12ZM4.25,16.75c1.1,2,5.46,1.54,9.74-1.09s6.85-6.39,5.76-8.41S14.29,5.71,10,8.34,3.16,14.73,4.25,16.75Zm15.5,0c1.09-2-1.48-5.78-5.76-8.41S5.35,5.22,4.25,7.25,5.73,13,10,15.66,18.65,18.78,19.75,16.75Z" id="primary"></path><line style="fill: none; stroke: rgb(0, 0, 0); stroke-linecap: round; stroke-linejoin: round; stroke-width: 1.35;" y2="12" x2="12.05" y1="12" x1="11.95" id="primary-upstroke"></line></svg>