<svg data-icon-name="eye" data-style="line" icon_origin_id="20465" viewBox="0 0 24 24" xmlns="http://www.w3.org/2000/svg" id="eye" class="icon line" width="48" height="48"><path style="fill: none; stroke: rgb(0, 0, 0); stroke-linecap: round; stroke-linejoin: round; stroke-width: 1;" d="M3,7V4A1,1,0,0,1,4,3H7" id="primary"></path><path style="fill: none; stroke: rgb(0, 0, 0); stroke-linecap: round; stroke-linejoin: round; stroke-width: 1;" d="M21,7V4a1,1,0,0,0-1-1H17" data-name="primary" id="primary-2"></path><path style="fill: none; stroke: rgb(0, 0, 0); stroke-linecap: round; stroke-linejoin: round; stroke-width: 1;" d="M3,17v3a1,1,0,0,0,1,1H7" data-name="primary" id="primary-3"></path><path style="fill: none; stroke: rgb(0, 0, 0); stroke-linecap: round; stroke-linejoin: round; stroke-width: 1;" d="M21,17v3a1,1,0,0,1-1,1H17" data-name="primary" id="primary-4"></path><path style="fill: none; stroke: rgb(0, 0, 0); stroke-linecap: round; stroke-linejoin: round; stroke-width: 1;" d="M19,12s-3.13,4-7,4-7-4-7-4,3.13-4,7-4S19,12,19,12Zm-7-2a2,2,0,1,0,2,2A2,2,0,0,0,12,10Z" data-name="primary" id="primary-5"></path></svg>