<svg data-icon-name="rice-cooker" data-style="line" icon_origin_id="19836" viewBox="0 0 24 24" xmlns="http://www.w3.org/2000/svg" id="rice-cooker" class="icon line" width="48" height="48"><path style="fill: none; stroke: rgb(0, 0, 0); stroke-linecap: round; stroke-linejoin: round; stroke-width: 1;" d="M18,21H16V20h2ZM8,20H6v1H8Zm11-1V9H5V19a1,1,0,0,0,1,1H18A1,1,0,0,0,19,19ZM19,7a2,2,0,0,0-2-2H7A2,2,0,0,0,5,7V9H19ZM14,4a1,1,0,0,0-1-1H11a1,1,0,0,0-1,1V5h4ZM4,9H20m-9,4h2" id="primary"></path></svg>